<svg width="25" height="15" viewBox="0 0 25 15" fill="none" xmlns="http://www.w3.org/2000/svg">
<g id="Combined Shape" filter="url(#filter0_d_0_1777)">
<path fill-rule="evenodd" clip-rule="evenodd" d="M7.65086 8.90828C7.69388 9.38225 7.79282 9.83943 7.94081 10.2719L5.5058 10.2719C3.01672 10.2719 1 8.19714 1 5.63631C1 3.07636 3.01667 1 5.5058 1H10.8074C13.2965 1 15.3132 3.07615 15.3132 5.63631C15.3132 7.62689 14.094 9.32398 12.3844 9.98013C12.0136 9.59546 11.715 9.10025 11.5335 8.76068C12.8276 8.34685 13.768 7.10431 13.768 5.63547C13.768 3.82797 12.3442 2.36266 10.5873 2.36266H5.7718C4.01499 2.36266 2.59107 3.82797 2.59107 5.63547C2.59107 7.44297 4.0149 8.90828 5.7718 8.90828H7.65086ZM13.1926 13C10.7044 13 8.68682 10.9245 8.68682 8.36369L8.68704 8.36383C8.68704 6.28836 10.0128 4.53215 11.8402 3.94055C12.2197 4.25624 12.4907 4.70459 12.5888 5.21571C11.2543 5.60396 10.2769 6.86665 10.2769 8.36378C10.2769 10.1713 11.7008 11.6366 13.4577 11.6366H18.2732C20.0293 11.6366 21.4532 10.1713 21.4532 8.36378C21.4532 6.55628 20.0292 5.09098 18.2732 5.09098H16.3485C16.3046 4.617 16.2048 4.1607 16.056 3.72738H18.4942C20.9824 3.72738 23 5.80286 23 8.36369C23 10.9236 20.9824 13 18.4933 13H13.1926Z" fill="white"/>
<path d="M7.94081 10.2719L7.94081 10.5219L8.29059 10.5219L8.17734 10.1909L7.94081 10.2719ZM7.65086 8.90828L7.89984 8.88568L7.8792 8.65828H7.65086V8.90828ZM5.5058 10.2719V10.5219H5.50581L5.5058 10.2719ZM12.3844 9.98013L12.2044 10.1536L12.3194 10.2729L12.474 10.2135L12.3844 9.98013ZM11.5335 8.76068L11.4574 8.52255L11.1716 8.61394L11.313 8.87854L11.5335 8.76068ZM8.68682 8.36369L8.81841 8.15113L8.43682 7.9149V8.36369H8.68682ZM8.68704 8.36383L8.55545 8.5764L8.93704 8.81262V8.36383H8.68704ZM11.8402 3.94055L12.0001 3.74837L11.8943 3.66028L11.7632 3.7027L11.8402 3.94055ZM12.5888 5.21571L12.6586 5.45576L12.8772 5.39216L12.8343 5.1686L12.5888 5.21571ZM16.3485 5.09098L16.0995 5.11402L16.1206 5.34098H16.3485V5.09098ZM16.056 3.72738V3.47738H15.7057L15.8195 3.8086L16.056 3.72738ZM8.17734 10.1909C8.03578 9.77727 7.94104 9.33968 7.89984 8.88568L7.40188 8.93087C7.44671 9.42483 7.54986 9.90159 7.70427 10.3528L8.17734 10.1909ZM5.50581 10.5219L7.94081 10.5219L7.9408 10.0219L5.50579 10.0219L5.50581 10.5219ZM0.75 5.63631C0.75 8.32847 2.872 10.5219 5.5058 10.5219V10.0219C3.16143 10.0219 1.25 8.06581 1.25 5.63631H0.75ZM5.5058 0.75C2.87188 0.75 0.75 2.94511 0.75 5.63631H1.25C1.25 3.2076 3.16147 1.25 5.5058 1.25V0.75ZM10.8074 0.75H5.5058V1.25H10.8074V0.75ZM15.5632 5.63631C15.5632 2.94489 13.4413 0.75 10.8074 0.75V1.25C13.1517 1.25 15.0632 3.20741 15.0632 5.63631H15.5632ZM12.474 10.2135C14.2804 9.52023 15.5632 7.73021 15.5632 5.63631H15.0632C15.0632 7.52356 13.9076 9.12774 12.2948 9.74673L12.474 10.2135ZM11.313 8.87854C11.4985 9.22545 11.8099 9.74435 12.2044 10.1536L12.5644 9.80662C12.2173 9.44657 11.9316 8.97504 11.754 8.64281L11.313 8.87854ZM13.518 5.63547C13.518 6.99644 12.6471 8.14211 11.4574 8.52255L11.6097 8.9988C13.0082 8.55159 14.018 7.21217 14.018 5.63547H13.518ZM10.5873 2.61266C12.1994 2.61266 13.518 3.95925 13.518 5.63547H14.018C14.018 3.69668 12.4889 2.11266 10.5873 2.11266V2.61266ZM5.7718 2.61266H10.5873V2.11266H5.7718V2.61266ZM2.84107 5.63547C2.84107 3.95926 4.15974 2.61266 5.7718 2.61266V2.11266C3.87023 2.11266 2.34107 3.69668 2.34107 5.63547H2.84107ZM5.7718 8.65828C4.15966 8.65828 2.84107 7.31169 2.84107 5.63547H2.34107C2.34107 7.57426 3.87014 9.15828 5.7718 9.15828V8.65828ZM7.65086 8.65828H5.7718V9.15828H7.65086V8.65828ZM8.43682 8.36369C8.43682 11.0558 10.5597 13.25 13.1926 13.25V12.75C10.8491 12.75 8.93682 10.7932 8.93682 8.36369H8.43682ZM8.81863 8.15126L8.81841 8.15113L8.55523 8.57626L8.55545 8.5764L8.81863 8.15126ZM11.7632 3.7027C9.832 4.3279 8.43704 6.18064 8.43704 8.36383H8.93704C8.93704 6.39607 10.1936 4.7364 11.9172 4.17839L11.7632 3.7027ZM12.8343 5.1686C12.7252 4.60033 12.4237 4.10083 12.0001 3.74837L11.6803 4.13272C12.0156 4.41164 12.2561 4.80884 12.3432 5.26283L12.8343 5.1686ZM10.5269 8.36378C10.5269 6.97654 11.4321 5.81259 12.6586 5.45576L12.5189 4.97567C11.0765 5.39533 10.0269 6.75676 10.0269 8.36378H10.5269ZM13.4577 11.3866C11.8455 11.3866 10.5269 10.04 10.5269 8.36378H10.0269C10.0269 10.3026 11.556 11.8866 13.4577 11.8866V11.3866ZM18.2732 11.3866H13.4577V11.8866H18.2732V11.3866ZM21.2032 8.36378C21.2032 10.04 19.8845 11.3866 18.2732 11.3866V11.8866C20.1741 11.8866 21.7032 10.3025 21.7032 8.36378H21.2032ZM18.2732 5.34098C19.8844 5.34098 21.2032 6.68754 21.2032 8.36378H21.7032C21.7032 6.42502 20.174 4.84098 18.2732 4.84098V5.34098ZM16.3485 5.34098H18.2732V4.84098H16.3485V5.34098ZM15.8195 3.8086C15.962 4.22333 16.0575 4.66011 16.0995 5.11402L16.5974 5.06793C16.5517 4.57389 16.4476 4.09807 16.2924 3.64617L15.8195 3.8086ZM18.4942 3.47738H16.056V3.97738H18.4942V3.47738ZM23.25 8.36369C23.25 5.67154 21.1271 3.47738 18.4942 3.47738V3.97738C20.8377 3.97738 22.75 5.93417 22.75 8.36369H23.25ZM18.4933 13.25C21.1272 13.25 23.25 11.055 23.25 8.36369H22.75C22.75 10.7923 20.8377 12.75 18.4933 12.75V13.25ZM13.1926 13.25H18.4933V12.75H13.1926V13.25Z" fill="white"/>
</g>
<defs>
<filter id="filter0_d_0_1777" x="0.75" y="0.75" width="23.5" height="13.5" filterUnits="userSpaceOnUse" color-interpolation-filters="sRGB">
<feFlood flood-opacity="0" result="BackgroundImageFix"/>
<feColorMatrix in="SourceAlpha" type="matrix" values="0 0 0 0 0 0 0 0 0 0 0 0 0 0 0 0 0 0 127 0" result="hardAlpha"/>
<feOffset dx="1" dy="1"/>
<feColorMatrix type="matrix" values="0 0 0 0 0 0 0 0 0 0 0 0 0 0 0 0 0 0 0.0980412 0"/>
<feBlend mode="normal" in2="BackgroundImageFix" result="effect1_dropShadow_0_1777"/>
<feBlend mode="normal" in="SourceGraphic" in2="effect1_dropShadow_0_1777" result="shape"/>
</filter>
</defs>
</svg>
