<svg width="20" height="16" viewBox="0 0 20 16" fill="none" xmlns="http://www.w3.org/2000/svg">
<path fill-rule="evenodd" clip-rule="evenodd" d="M17.0001 0H2.9999C1.34434 0.00187496 0.00191994 1.3435 0 3.00012V12.9999C0.00187506 14.6565 1.34434 15.9981 2.9999 16H17.0001C18.6557 15.9981 19.9981 14.6565 20 12.9999V3.00012C19.9981 1.3435 18.6557 0.00192008 17.0001 0ZM2.9999 1.99976H17.0001C17.3629 2.00351 17.6938 2.20602 17.8635 2.52665L9.99993 9.33597L2.13634 2.52665C2.30602 2.20602 2.63694 2.0035 2.99976 1.99976H2.9999ZM2.00055 12.9999C2.00055 13.5521 2.44867 13.9993 2.9999 14.0002H17C17.5513 13.9993 17.9994 13.5521 17.9994 12.9999V5.05436L9.99998 11.9818L2.00055 5.05436V12.9999Z" fill="white"/>
</svg>
