<svg width="10" height="10" viewBox="0 0 10 10" fill="none" xmlns="http://www.w3.org/2000/svg">
<path d="M5.29509 5.04565C5.39608 5.04565 5.49279 5.00516 5.56424 4.9337L9.1518 1.34614V3.20114C9.1518 3.4117 9.32234 3.58224 9.5329 3.58224C9.74298 3.58224 9.914 3.4117 9.914 3.20114V0.426752C9.914 0.216191 9.74298 0.0456543 9.5329 0.0456543H6.75851C6.54795 0.0456543 6.37741 0.216191 6.37741 0.426752C6.37741 0.637313 6.54795 0.807849 6.75851 0.807849H8.61302L5.00022 4.39541C4.89113 4.50402 4.85873 4.6679 4.9178 4.81033C4.97687 4.95276 5.1155 5.04565 5.26937 5.04565L5.29509 5.04565Z" fill="white"/>
<path d="M9.57319 5.41151C9.36263 5.41151 9.1921 5.58205 9.1921 5.79261V8.94285C9.1921 9.00907 9.1659 9.07243 9.11921 9.11911C9.07253 9.16579 9.00917 9.192 8.94295 9.192H1.0571C0.91943 9.192 0.807954 9.08052 0.807954 8.94285V1.057C0.807954 0.919325 0.919425 0.807849 1.0571 0.807849H4.03966C4.25022 0.807849 4.42076 0.637313 4.42076 0.426752C4.42076 0.216191 4.25022 0.0456543 4.03966 0.0456543H1.0571C0.495454 0.0456543 0.0405273 0.500593 0.0405273 1.06175V8.94285C0.0405273 9.21247 0.147711 9.47114 0.338259 9.66169C0.528807 9.85224 0.787479 9.95942 1.0571 9.95942H8.94295C9.21258 9.95942 9.47125 9.85224 9.6618 9.66169C9.85234 9.47114 9.95953 9.21247 9.95953 8.94285V5.79261C9.95953 5.69066 9.91856 5.59301 9.84615 5.52154C9.77326 5.44961 9.67514 5.41007 9.57319 5.4115L9.57319 5.41151Z" fill="white"/>
</svg>
