<svg width="13" height="13" viewBox="0 0 13 13" fill="none" xmlns="http://www.w3.org/2000/svg">
<g clip-path="url(#clip0_101_2)">
<path d="M4.84946 7.82266C5.67612 7.82266 6.37566 7.5312 6.94796 6.94828C7.52028 6.36536 7.81174 5.66058 7.82234 4.83388C7.83294 4.00722 7.54148 3.30768 6.94796 2.73538C6.35444 2.16306 5.65496 1.8716 4.84946 1.861C4.04396 1.8504 3.33916 2.14186 2.73506 2.73538C2.13092 3.3289 1.83946 4.02838 1.86068 4.83388C1.88188 5.63938 2.17334 6.34418 2.73506 6.94828C3.29678 7.55242 4.00156 7.84388 4.84946 7.82266V7.82266ZM9.31896 8.03416L13 11.7161L11.741 13.0001L8.05927 9.30006L8.06124 8.60527L7.9712 8.50642C7.09147 9.26729 6.0512 9.64772 4.8505 9.64772C3.4952 9.64772 2.348 9.18409 1.4088 8.25682C0.4696 7.32955 0 6.18822 0 4.83292C0 3.47762 0.4696 2.33632 1.4088 1.40902C2.348 0.48175 3.4952 0.0121202 4.8505 0.000220174C6.2058 -0.0116688 7.3411 0.45793 8.2565 1.40902C9.1719 2.36009 9.6355 3.50142 9.6474 4.83292C9.6474 6.04552 9.26697 7.09172 8.5061 7.97142L8.60493 8.06147L9.31896 8.03416Z" fill="white"/>
</g>
<defs>
<clipPath id="clip0_101_2">
<rect width="13" height="13" fill="white"/>
</clipPath>
</defs>
</svg>
