<svg width="19" height="20" viewBox="0 0 19 20" fill="none" xmlns="http://www.w3.org/2000/svg">
<path fill-rule="evenodd" clip-rule="evenodd" d="M15.0133 14.3179L18.6482 17.9494C19.1207 18.4206 19.1207 19.1802 18.6273 19.6514C18.4011 19.8766 18.093 20 17.7849 20C17.4769 20 17.1688 19.8774 16.9426 19.6514L13.164 15.8773C11.85 16.6978 10.2888 17.1898 8.60488 17.1898C3.86129 17.1898 0 13.3338 0 8.59492C0 3.856 3.86109 0 8.6057 0C13.3493 0 17.2106 3.8558 17.2106 8.59492C17.2106 10.7897 16.3691 12.8002 15.0133 14.3179ZM8.60468 2.39972C5.17509 2.39972 2.4025 5.18899 2.4025 8.59472C2.4025 12.0203 5.19583 14.7897 8.6055 14.7897C12.0143 14.7897 14.7869 12.0002 14.7869 8.59472C14.7869 5.1892 12.0351 2.39972 8.60468 2.39972Z" fill="black"/>
</svg>
