<svg width="23" height="25" viewBox="0 0 23 25" fill="none" xmlns="http://www.w3.org/2000/svg">
<path fill-rule="evenodd" clip-rule="evenodd" d="M18.1739 17.8974L22.5741 22.4368C23.1461 23.0257 23.1461 23.9753 22.5489 24.5643C22.275 24.8457 21.9021 25 21.5291 25C21.1562 25 20.7833 24.8468 20.5094 24.5643L15.9354 19.8466C14.3448 20.8723 12.4549 21.4873 10.4164 21.4873C4.6742 21.4873 0 16.6673 0 10.7436C0 4.82 4.67395 0 10.4174 0C16.1597 0 20.8339 4.81974 20.8339 10.7436C20.8339 13.4871 19.8152 16.0002 18.1739 17.8974ZM10.4162 2.99965C6.26458 2.99965 2.90829 6.48624 2.90829 10.7434C2.90829 15.0254 6.28969 18.4871 10.4172 18.4871C14.5437 18.4871 17.9 15.0003 17.9 10.7434C17.9 6.4865 14.5688 2.99965 10.4162 2.99965Z" fill="white"/>
</svg>
