<svg width="21" height="18" viewBox="0 0 21 18" fill="none" xmlns="http://www.w3.org/2000/svg">
<g id="&#239;&#130;&#153;" filter="url(#filter0_d_0_82)">
<path d="M6.28905 16.25C8.68488 16.25 10.8073 15.638 12.6562 14.414C14.3489 13.3203 15.664 11.8489 16.6015 9.99998C17.513 8.25519 17.9687 6.4453 17.9687 4.5703C17.9687 4.33593 17.9557 4.16666 17.9296 4.06249C18.7369 3.46353 19.427 2.74739 20 1.91406C19.2187 2.2526 18.4375 2.47395 17.6562 2.57812C18.5416 2.03125 19.1406 1.27604 19.4531 0.312499C18.6458 0.781248 17.7734 1.10677 16.8359 1.28906C16.4453 0.898435 15.9961 0.585936 15.4882 0.351562C14.9804 0.117187 14.427 0 13.8281 0C13.0989 0 12.4218 0.182291 11.7968 0.546874C11.1718 0.911456 10.6771 1.41276 10.3125 2.05078C9.94789 2.6888 9.7656 3.37239 9.7656 4.10155C9.7656 4.41405 9.79164 4.72655 9.84373 5.03905C8.17706 4.96093 6.60806 4.54426 5.13671 3.78905C3.66536 3.03385 2.42187 2.01822 1.40625 0.742186C1.01562 1.39323 0.820311 2.07682 0.820311 2.79296C0.820311 3.50911 0.989581 4.16666 1.32812 4.76561C1.66666 5.36457 2.10937 5.85936 2.65624 6.24999C2.0052 6.22394 1.39323 6.04165 0.820311 5.70311V5.78124C0.820311 6.74478 1.13281 7.60415 1.75781 8.35935C2.38281 9.11456 3.16405 9.59633 4.10155 9.80466C3.73697 9.88279 3.37239 9.92185 3.00781 9.92185C2.77343 9.92185 2.52604 9.90883 2.26562 9.88279C2.52604 10.6901 3.00129 11.3606 3.6914 11.8945C4.3815 12.4284 5.18228 12.6953 6.09374 12.6953C4.58332 13.8672 2.8776 14.4531 0.97656 14.4531C0.611978 14.4531 0.286457 14.4401 0 14.414C1.90104 15.638 3.99739 16.25 6.28905 16.25Z" fill="#0084B4"/>
</g>
<defs>
<filter id="filter0_d_0_82" x="0" y="0" width="20.9999" height="17.25" filterUnits="userSpaceOnUse" color-interpolation-filters="sRGB">
<feFlood flood-opacity="0" result="BackgroundImageFix"/>
<feColorMatrix in="SourceAlpha" type="matrix" values="0 0 0 0 0 0 0 0 0 0 0 0 0 0 0 0 0 0 127 0" result="hardAlpha"/>
<feOffset dx="1" dy="1"/>
<feColorMatrix type="matrix" values="0 0 0 0 0 0 0 0 0 0 0 0 0 0 0 0 0 0 0.0980412 0"/>
<feBlend mode="normal" in2="BackgroundImageFix" result="effect1_dropShadow_0_82"/>
<feBlend mode="normal" in="SourceGraphic" in2="effect1_dropShadow_0_82" result="shape"/>
</filter>
</defs>
</svg>
